<svg width="25" height="25" viewBox="0 0 25 25" fill="none" xmlns="http://www.w3.org/2000/svg">
<g id="Bookmark 3">
<g id="Mask group">
<mask id="mask0_92_2003" style="mask-type:alpha" maskUnits="userSpaceOnUse" x="4" y="2" width="17" height="22">
<g id="Group">
<path id="Vector" fill-rule="evenodd" clip-rule="evenodd" d="M4.11523 2.07019H20.5489V23.0143H4.11523V2.07019Z" fill="white"/>
</g>
</mask>
<g mask="url(#mask0_92_2003)">
<g id="Group_2">
<path id="Vector_2" fill-rule="evenodd" clip-rule="evenodd" d="M9.26752 3.5772C6.80904 3.5772 5.56196 4.56379 5.56196 6.51185V21.3047C5.56196 21.3991 5.61405 21.4503 5.65745 21.4765C5.70085 21.5046 5.76933 21.5247 5.84842 21.4785L12.0038 17.8817C12.2237 17.7541 12.4927 17.7531 12.7136 17.8827L18.8159 21.4734C18.896 21.5217 18.9645 21.4996 19.0079 21.4724C19.0513 21.4453 19.1024 21.3941 19.1024 21.2996V6.6957C19.1024 5.92512 19.1024 3.5772 15.4007 3.5772H9.26752ZM5.7539 23.0146C5.46937 23.0146 5.18485 22.9352 4.92637 22.7765C4.41808 22.4681 4.11523 21.9165 4.11523 21.3047V6.51185C4.11523 3.68872 5.99309 2.07019 9.26752 2.07019H15.4007C18.6722 2.07019 20.5491 3.75704 20.5491 6.6957V21.2996C20.5491 21.9125 20.2463 22.464 19.737 22.7725C19.2297 23.0819 18.6182 23.0879 18.1051 22.7865L12.3568 19.4038L6.55538 22.7936C6.30462 22.9403 6.02974 23.0146 5.7539 23.0146Z" fill="#1B1A1E" fill-opacity="0.4"/>
</g>
</g>
</g>
<path id="Vector_3" fill-rule="evenodd" clip-rule="evenodd" d="M15.8235 10.3371H8.76536C8.36606 10.3371 8.04199 9.99952 8.04199 9.58358C8.04199 9.16765 8.36606 8.83008 8.76536 8.83008H15.8235C16.2228 8.83008 16.5468 9.16765 16.5468 9.58358C16.5468 9.99952 16.2228 10.3371 15.8235 10.3371Z" fill="#1B1A1E" fill-opacity="0.4"/>
</g>
</svg>
