<svg width="25" height="25" viewBox="0 0 25 25" fill="none" xmlns="http://www.w3.org/2000/svg">
<g id="Discount 1">
<g id="Iconly/Light-Outline/Discount">
<g id="Discount">
<g id="Group 3">
<g id="Mask group">
<mask id="mask0_92_2013" style="mask-type:alpha" maskUnits="userSpaceOnUse" x="2" y="2" width="21" height="21">
<g id="Group">
<path id="Clip 2" fill-rule="evenodd" clip-rule="evenodd" d="M2.8042 2.07507H22.9004V22.1695H2.8042V2.07507Z" fill="white"/>
</g>
</mask>
<g mask="url(#mask0_92_2013)">
<g id="Group_2">
<path id="Fill 1" fill-rule="evenodd" clip-rule="evenodd" d="M11.7907 20.2348C12.3835 20.8135 13.3379 20.8064 13.9267 20.2147L14.6521 19.4913C15.2147 18.9297 15.9923 18.6092 16.785 18.6092H17.8198C18.6577 18.6092 19.3389 17.9281 19.3389 17.0912V16.0574C19.3389 15.2526 19.6503 14.4961 20.219 13.9265L20.9423 13.2021C21.2367 12.9067 21.3944 12.5239 21.3934 12.118C21.3924 11.7132 21.2327 11.3324 20.9443 11.045L20.22 10.3197C19.6503 9.74602 19.3389 8.9905 19.3389 8.18576V7.15396C19.3389 6.31606 18.6577 5.6349 17.8198 5.6349H16.787C15.9822 5.6349 15.2257 5.32244 14.6561 4.75681L13.9307 4.03043C13.3269 3.43265 12.3634 3.43567 11.7737 4.02943L11.0513 4.7538C10.4746 5.32345 9.71808 5.6349 8.91635 5.6349H7.88254C7.04565 5.6359 6.36448 6.31707 6.36448 7.15396V8.18375C6.36448 8.98849 6.05203 9.74501 5.48539 10.3157L4.77207 11.03C4.76504 11.038 4.75801 11.044 4.75098 11.0511C4.16123 11.6448 4.16425 12.6083 4.75801 13.1981L5.48338 13.9234C6.05203 14.4941 6.36448 15.2506 6.36448 16.0554V17.0912C6.36448 17.9281 7.04464 18.6092 7.88254 18.6092H8.91434C9.72009 18.6102 10.4766 18.9227 11.0463 19.4903L11.7707 20.2127C11.7767 20.2197 11.7837 20.2268 11.7907 20.2348ZM12.8497 22.1698C12.0791 22.1698 11.3085 21.8784 10.7187 21.2937C10.7107 21.2857 10.7027 21.2776 10.6946 21.2686L9.9813 20.5563C9.69698 20.274 9.31721 20.1172 8.91334 20.1162H7.88254C6.21378 20.1162 4.85747 18.7589 4.85747 17.0912V16.0554C4.85747 15.6515 4.69974 15.2727 4.41642 14.9874L3.69406 14.266C2.5206 13.0986 2.50654 11.1978 3.6589 10.0123C3.66794 10.0032 3.67698 9.99417 3.68602 9.98513L4.41742 9.25172C4.69974 8.9674 4.85747 8.58662 4.85747 8.18375V7.15396C4.85747 5.4862 6.21378 4.12889 7.88154 4.12789H8.91635C9.31922 4.12789 9.69899 3.97015 9.98733 3.68583L10.7057 2.96548C11.8802 1.78298 13.8001 1.77695 14.9846 2.95443L15.719 3.68884C16.0033 3.97116 16.3831 4.12789 16.787 4.12789H17.8198C19.4886 4.12789 20.8459 5.4852 20.8459 7.15396V8.18576C20.8459 8.58863 21.0026 8.9694 21.2869 9.25574L22.0083 9.9781C22.5799 10.5457 22.8974 11.3043 22.9004 12.113C22.9034 12.9218 22.591 13.6823 22.0213 14.256L21.2849 14.9904C21.0026 15.2747 20.8459 15.6535 20.8459 16.0574V17.0912C20.8459 18.7589 19.4886 20.1162 17.8208 20.1162H16.785C16.3871 20.1162 15.9983 20.277 15.716 20.5573L14.9947 21.2786C14.4049 21.8724 13.6273 22.1698 12.8497 22.1698Z" fill="#1B1A1E" fill-opacity="0.4"/>
</g>
</g>
</g>
</g>
<path id="Fill 4" fill-rule="evenodd" clip-rule="evenodd" d="M10.2689 15.4586C10.076 15.4586 9.88308 15.3853 9.7364 15.2376C9.44203 14.9432 9.44203 14.467 9.7364 14.1726L14.9004 9.00764C15.1948 8.71327 15.672 8.71327 15.9664 9.00764C16.2607 9.30201 16.2607 9.77923 15.9664 10.0736L10.8014 15.2376C10.6547 15.3853 10.4618 15.4586 10.2689 15.4586Z" fill="#1B1A1E" fill-opacity="0.4"/>
<path id="Fill 6" fill-rule="evenodd" clip-rule="evenodd" d="M15.3657 15.6372C14.8101 15.6372 14.356 15.1881 14.356 14.6325C14.356 14.0769 14.801 13.6278 15.3566 13.6278H15.3657C15.9212 13.6278 16.3703 14.0769 16.3703 14.6325C16.3703 15.1881 15.9212 15.6372 15.3657 15.6372Z" fill="#1B1A1E" fill-opacity="0.4"/>
<path id="Fill 8" fill-rule="evenodd" clip-rule="evenodd" d="M10.3427 10.6139C9.78712 10.6139 9.33301 10.1648 9.33301 9.60917C9.33301 9.05358 9.77808 8.60449 10.3337 8.60449H10.3427C10.8982 8.60449 11.3473 9.05358 11.3473 9.60917C11.3473 10.1648 10.8982 10.6139 10.3427 10.6139Z" fill="#1B1A1E" fill-opacity="0.4"/>
</g>
</g>
</g>
</svg>
