<svg width="25" height="25" viewBox="0 0 25 25" fill="none" xmlns="http://www.w3.org/2000/svg">
<g id="Home 1">
<path id="Vector" d="M19.0066 22.1637H17.0365C16.7082 22.1637 16.3933 22.0335 16.1619 21.8022C15.9306 21.5708 15.8018 21.2572 15.8042 20.9312V17.8592C15.8042 17.4827 15.6535 17.1215 15.3852 16.8553L15.9161 16.3205C16.3263 16.7277 16.5577 17.2811 16.5577 17.8592V20.9312V20.9368H16.5577C16.5567 21.0602 16.6055 21.1801 16.6947 21.2694C16.7842 21.3588 16.9072 21.4101 17.0365 21.4101H19.0066H19.0085C19.7302 21.412 20.422 21.1286 20.9312 20.6243C21.4403 20.1203 21.7254 19.437 21.7254 18.7255V9.97381C21.7254 9.46374 21.4989 8.97824 21.1039 8.6474L14.4094 3.33966L14.4071 3.33784C13.5244 2.63236 12.2581 2.65529 11.4019 3.39187L11.3918 3.40057L11.3814 3.40892L4.83254 8.65099L4.8269 8.6555L4.82118 8.65991C4.40577 8.97956 4.15824 9.46561 4.14364 9.98347V18.7165C4.14364 20.1991 5.35571 21.4101 6.86246 21.4101H8.78753C9.06077 21.4101 9.27357 21.1927 9.27545 20.9347L9.27939 20.3947L9.30242 20.3871V17.8592C9.30242 16.6538 10.2853 15.6858 11.4862 15.6858H14.3738C14.9512 15.6858 15.5061 15.9134 15.916 16.3205L19.0066 22.1637ZM19.0066 22.1637C19.9267 22.166 20.81 21.8048 21.4614 21.1598C22.1128 20.5148 22.4789 19.6389 22.4789 18.7255V9.97381C22.4789 9.23598 22.1495 8.53611 21.5793 8.06273L19.0066 22.1637Z" stroke="#5A90E2" stroke-width="1.50701"/>
</g>
</svg>
