<svg width="154" height="59" viewBox="0 0 154 59" fill="none" xmlns="http://www.w3.org/2000/svg">
<g id="Levels">
<g id="Battery">
<rect id="Border" opacity="0.35" x="99.9455" y="20.6055" width="26.2595" height="13.1298" rx="4.15776" stroke="black" stroke-width="1.09415"/>
<path id="Cap" opacity="0.4" d="M127.846 25.2897V29.7489C128.727 29.3712 129.299 28.4927 129.299 27.5193C129.299 26.546 128.727 25.6674 127.846 25.2897Z" fill="black"/>
<rect id="Capacity" x="101.587" y="22.2468" width="22.9771" height="9.84733" rx="2.73537" fill="black"/>
</g>
<path id="Wifi" fill-rule="evenodd" clip-rule="evenodd" d="M82.1878 23.4546C84.9091 23.4548 87.5263 24.4636 89.4985 26.2728C89.647 26.4125 89.8844 26.4107 90.0307 26.2689L91.4503 24.8864C91.5244 24.8145 91.5657 24.717 91.5651 24.6156C91.5645 24.5142 91.522 24.4172 91.4471 24.3461C86.2706 19.5595 78.1042 19.5595 72.9278 24.3461C72.8528 24.4172 72.8103 24.5141 72.8096 24.6155C72.8089 24.7169 72.8501 24.8144 72.9241 24.8864L74.3442 26.2689C74.4903 26.4109 74.7279 26.4127 74.8763 26.2728C76.8488 24.4635 79.4663 23.4546 82.1878 23.4546ZM82.1842 28.0722C83.6693 28.0722 85.1014 28.6321 86.2022 29.6432C86.3511 29.7867 86.5857 29.7836 86.7308 29.6362L88.1393 28.1927C88.2135 28.117 88.2546 28.0142 88.2535 27.9075C88.2525 27.8008 88.2093 27.6989 88.1336 27.6248C84.7813 24.4617 79.5899 24.4617 76.2376 27.6248C76.1619 27.6989 76.1187 27.8008 76.1177 27.9076C76.1167 28.0144 76.158 28.1171 76.2323 28.1927L77.6404 29.6362C77.7855 29.7836 78.0201 29.7867 78.169 29.6432C79.2691 28.6327 80.7 28.0729 82.1842 28.0722ZM84.9463 31.1288C84.9484 31.2441 84.9078 31.3552 84.8342 31.436L82.4526 34.1218C82.3828 34.2007 82.2876 34.2452 82.1883 34.2452C82.089 34.2452 81.9938 34.2007 81.924 34.1218L79.542 31.436C79.4684 31.3551 79.4279 31.244 79.4301 31.1287C79.4323 31.0134 79.4769 30.9043 79.5535 30.827C81.0745 29.3894 83.3021 29.3894 84.8231 30.827C84.8996 30.9043 84.9442 31.0135 84.9463 31.1288Z" fill="black"/>
<path id="Cellular Connection" fill-rule="evenodd" clip-rule="evenodd" d="M64.6043 21.8988C64.6043 21.2062 64.0818 20.6447 63.4372 20.6447H62.2701C61.6256 20.6447 61.103 21.2062 61.103 21.8988V32.768C61.103 33.4607 61.6256 34.0222 62.2701 34.0222H63.4372C64.0818 34.0222 64.6043 33.4607 64.6043 32.768V21.8988ZM56.4703 23.3202H57.6374C58.282 23.3202 58.8045 23.8951 58.8045 24.6044V32.7379C58.8045 33.4472 58.282 34.0222 57.6374 34.0222H56.4703C55.8257 34.0222 55.3032 33.4472 55.3032 32.7379V24.6044C55.3032 23.8951 55.8257 23.3202 56.4703 23.3202ZM51.7307 26.2186H50.5636C49.919 26.2186 49.3965 26.8009 49.3965 27.5192V32.7216C49.3965 33.4398 49.919 34.0221 50.5636 34.0221H51.7307C52.3753 34.0221 52.8978 33.4398 52.8978 32.7216V27.5192C52.8978 26.8009 52.3753 26.2186 51.7307 26.2186ZM45.9309 28.8941H44.7638C44.1192 28.8941 43.5967 29.4681 43.5967 30.1761V32.7401C43.5967 33.4482 44.1192 34.0222 44.7638 34.0222H45.9309C46.5754 34.0222 47.098 33.4482 47.098 32.7401V30.1761C47.098 29.4681 46.5754 28.8941 45.9309 28.8941Z" fill="black"/>
</g>
</svg>
