<svg width="25" height="25" viewBox="0 0 25 25" fill="none" xmlns="http://www.w3.org/2000/svg">
<g id="Setting ">
<g id="Iconly/Light-Outline/Setting">
<g id="Setting">
<g id="Group 3">
<g id="Mask group">
<mask id="mask0_92_2026" style="mask-type:alpha" maskUnits="userSpaceOnUse" x="2" y="2" width="20" height="21">
<g id="Group">
<path id="Clip 2" fill-rule="evenodd" clip-rule="evenodd" d="M2.09766 2.00989H21.4727V22.8277H2.09766V2.00989Z" fill="white"/>
</g>
</mask>
<g mask="url(#mask0_92_2026)">
<g id="Group_2">
<path id="Fill 1" fill-rule="evenodd" clip-rule="evenodd" d="M7.32429 17.522C7.55436 17.522 7.78443 17.5512 8.00947 17.6115C8.68863 17.7943 9.27837 18.2484 9.628 18.8583C9.85506 19.241 9.98064 19.6881 9.98466 20.1442C9.98466 20.7973 10.5091 21.3207 11.1541 21.3207H12.4129C13.0549 21.3207 13.5794 20.8003 13.5824 20.1583C13.5784 19.449 13.8556 18.7749 14.363 18.2675C14.8633 17.7672 15.5626 17.4668 16.2618 17.4869C16.72 17.4979 17.161 17.6215 17.5498 17.8425C18.1094 18.163 18.8238 17.9721 19.1473 17.4196L19.8144 16.3074C19.9631 16.0512 20.0063 15.7297 19.9269 15.4333C19.8485 15.137 19.6516 14.8798 19.3864 14.7281C18.7655 14.3704 18.3224 13.7937 18.1386 13.1025C17.9567 12.4243 18.0562 11.6839 18.4108 11.0741C18.6419 10.6722 18.9805 10.3336 19.3864 10.1005C19.9309 9.78204 20.1218 9.06972 19.8053 8.51514C19.7923 8.49304 19.7802 8.46993 19.7702 8.44582L19.1814 7.42508C18.8609 6.86748 18.1476 6.67559 17.588 6.99407C16.9832 7.35173 16.2638 7.45421 15.5726 7.27236C14.8824 7.09353 14.3037 6.6565 13.9431 6.03963C13.712 5.65384 13.5864 5.20475 13.5824 4.74762C13.5914 4.40402 13.4709 4.09559 13.2518 3.86954C13.0338 3.64449 12.7274 3.5169 12.4129 3.5169H11.1541C10.8426 3.5169 10.5513 3.63846 10.3313 3.85748C10.1123 4.0775 9.9927 4.36986 9.99471 4.68131C9.97361 6.15015 8.77302 7.33264 7.31926 7.33264C6.85309 7.32762 6.40401 7.20204 6.01419 6.96895C5.46665 6.6575 4.75132 6.8494 4.43083 7.40699L3.75066 8.52519C3.43922 9.0657 3.6301 9.78003 4.18468 10.1025C5.00751 10.5788 5.5209 11.4669 5.5209 12.4193C5.5209 13.3717 5.00751 14.2589 4.18267 14.7361C3.63111 15.0556 3.44022 15.7659 3.75971 16.3184L4.39365 17.4115C4.55038 17.6938 4.80658 17.8978 5.10295 17.9812C5.39833 18.0636 5.72384 18.0284 5.9951 17.8777C6.39396 17.6436 6.85812 17.522 7.32429 17.522ZM12.4129 22.8277H11.1541C9.67824 22.8277 8.47765 21.6281 8.47765 20.1523C8.47564 19.9704 8.4234 19.7816 8.32594 19.6178C8.16821 19.3425 7.91302 19.1456 7.61865 19.0672C7.32629 18.9889 7.0058 19.0321 6.74258 19.1848C6.11165 19.5364 5.36919 19.6218 4.69003 19.4309C4.01188 19.239 3.42615 18.7729 3.08256 18.155L2.45464 17.073C1.72022 15.799 2.15725 14.1664 3.42917 13.431C3.78985 13.2231 4.01389 12.8352 4.01389 12.4193C4.01389 12.0034 3.78985 11.6146 3.42917 11.4066C2.15625 10.6672 1.72022 9.03054 2.45363 7.75662L3.1348 6.63842C3.85917 5.37856 5.49679 4.93449 6.77372 5.6679C6.94753 5.77138 7.13641 5.82363 7.3283 5.82564C7.95422 5.82564 8.47765 5.30923 8.4877 4.67428C8.48368 3.97402 8.75996 3.3019 9.2633 2.79454C9.76866 2.28818 10.4398 2.00989 11.1541 2.00989H12.4129C13.1323 2.00989 13.8315 2.30526 14.3329 2.81865C14.8332 3.33505 15.1095 4.04335 15.0884 4.76169C15.0904 4.92344 15.1436 5.11031 15.2401 5.27407C15.3998 5.54533 15.652 5.73622 15.9514 5.81458C16.2508 5.88893 16.5642 5.84874 16.8305 5.69101C18.1165 4.95659 19.7531 5.39664 20.4875 6.67257L21.1134 7.75662C21.1295 7.78575 21.1435 7.81388 21.1556 7.84302C21.8207 9.09986 21.3766 10.6822 20.1409 11.4046C19.961 11.5081 19.8154 11.6527 19.7149 11.8276C19.5592 12.0978 19.516 12.4193 19.5943 12.7147C19.6747 13.0161 19.8666 13.2663 20.1369 13.421C20.7467 13.7716 21.2018 14.3624 21.3837 15.0445C21.5655 15.7257 21.466 16.4651 21.1114 17.075L20.4443 18.1861C19.7099 19.448 18.0733 19.885 16.8003 19.1496C16.6306 19.0522 16.4346 18.9989 16.2397 18.9939H16.2337C15.9434 18.9939 15.645 19.1175 15.428 19.3335C15.2079 19.5535 15.0874 19.8469 15.0894 20.1583C15.0823 21.6342 13.8818 22.8277 12.4129 22.8277Z" fill="#1B1A1E" fill-opacity="0.4"/>
</g>
</g>
</g>
</g>
<path id="Fill 4" fill-rule="evenodd" clip-rule="evenodd" d="M11.7875 10.5236C10.7427 10.5236 9.89275 11.3746 9.89275 12.4194C9.89275 13.4643 10.7427 14.3132 11.7875 14.3132C12.8324 14.3132 13.6823 13.4643 13.6823 12.4194C13.6823 11.3746 12.8324 10.5236 11.7875 10.5236ZM11.7875 15.8202C9.91184 15.8202 8.38574 14.2951 8.38574 12.4194C8.38574 10.5437 9.91184 9.0166 11.7875 9.0166C13.6633 9.0166 15.1894 10.5437 15.1894 12.4194C15.1894 14.2951 13.6633 15.8202 11.7875 15.8202Z" fill="#1B1A1E" fill-opacity="0.4"/>
</g>
</g>
</g>
</svg>
