<svg width="228" height="117" viewBox="0 0 228 117" fill="none" xmlns="http://www.w3.org/2000/svg">
<path id="Vector" d="M1.73697 99.9042C0.965965 105.197 0.550289 110.567 0.504289 115.977L1.00427 115.982C1.00142 116.317 1 116.651 1 116.987H1.92036C1.92036 116.654 1.92177 116.322 1.92459 115.99L2.42457 115.995C2.4698 110.675 2.87844 105.397 3.6364 100.193L3.14162 100.121C3.23736 99.4638 3.33866 98.8077 3.44548 98.1529L3.93895 98.2334C4.79323 92.9964 6.00222 87.8407 7.55137 82.8024L7.07345 82.6554C7.26855 82.0209 7.46902 81.3882 7.67483 80.7575L8.15017 80.9126C9.79247 75.8794 11.7765 70.9692 14.0874 66.2185L13.6378 65.9998C13.9281 65.4029 14.2236 64.8086 14.5241 64.2168L14.9699 64.4432C17.3619 59.7339 20.0789 55.1884 23.106 50.8432L22.6958 50.5574C23.0751 50.0129 23.4593 49.4716 23.8483 48.9334L24.2535 49.2263C27.3394 44.9572 30.7299 40.8906 34.4107 37.0621L34.0503 36.7155C34.2803 36.4762 34.5116 36.2378 34.7439 36.0004C34.9732 35.766 35.2033 35.5329 35.4344 35.3008L35.7887 35.6535C39.495 31.9307 43.4294 28.4983 47.5582 25.3706L47.2562 24.9721C47.7786 24.5764 48.304 24.1855 48.8325 23.7996L49.1274 24.2034C53.3568 21.1145 57.7811 18.3399 62.3649 15.8945L62.1296 15.4533C62.7074 15.1451 63.2877 14.8421 63.8704 14.5443L64.0979 14.9895C68.7481 12.6132 73.5552 10.5718 78.4836 8.88047L78.3213 8.40754C78.9406 8.19503 79.5617 7.98801 80.1847 7.78653L80.3385 8.26227C85.2923 6.66009 90.3627 5.40923 95.5138 4.52478L95.4292 4.03199C96.0743 3.92123 96.7207 3.81619 97.3683 3.71689L97.444 4.21112C102.573 3.42467 107.777 3.00061 113.022 2.95367L113.017 2.45369C113.345 2.45075 113.672 2.44929 114 2.44929C114.328 2.44929 114.655 2.45075 114.983 2.45369L114.978 2.95367C120.223 3.00061 125.427 3.42468 130.556 4.21112L130.632 3.7169C131.279 3.81619 131.926 3.92123 132.571 4.032L132.486 4.52479C137.637 5.40923 142.708 6.6601 147.661 8.26227L147.815 7.78653C148.438 7.98802 149.059 8.19503 149.679 8.40754L149.516 8.88047C154.445 10.5718 159.252 12.6132 163.902 14.9895L164.13 14.5443C164.712 14.8421 165.293 15.1451 165.87 15.4533L165.635 15.8945C170.219 18.3399 174.643 21.1145 178.873 24.2034L179.168 23.7996C179.696 24.1856 180.221 24.5764 180.744 24.9721L180.442 25.3706C184.571 28.4983 188.505 31.9307 192.211 35.6536L192.566 35.3008C192.797 35.5329 193.027 35.7661 193.256 36.0004C193.488 36.2378 193.72 36.4762 193.95 36.7155L193.589 37.0621C197.27 40.8906 200.661 44.9572 203.746 49.2263L204.152 48.9334C204.541 49.4716 204.925 50.0129 205.304 50.5574L204.894 50.8433C207.921 55.1884 210.638 59.7339 213.03 64.4432L213.476 64.2168C213.776 64.8086 214.072 65.4029 214.362 65.9998L213.913 66.2185C216.224 70.9693 218.208 75.8794 219.85 80.9126L220.325 80.7575C220.531 81.3882 220.731 82.0209 220.927 82.6554L220.449 82.8024C221.998 87.8407 223.207 92.9964 224.061 98.2334L224.555 98.1529C224.661 98.8077 224.763 99.4638 224.858 100.121L224.364 100.193C225.122 105.397 225.53 110.675 225.575 115.995L226.075 115.99C226.078 116.322 226.08 116.654 226.08 116.987H227C227 116.652 226.999 116.317 226.996 115.982L227.496 115.977C227.45 110.567 227.034 105.197 226.263 99.9042L225.768 99.9762C225.672 99.3133 225.57 98.6516 225.462 97.9912L225.955 97.9107C225.086 92.5835 223.856 87.3391 222.281 82.214L221.803 82.361C221.606 81.721 221.404 81.083 221.196 80.4468L221.672 80.2917C220.001 75.172 217.983 70.1773 215.632 65.3448L215.183 65.5635C214.89 64.9616 214.592 64.3622 214.289 63.7654L214.734 63.5389C212.301 58.7485 209.538 54.1248 206.458 49.7049L206.048 49.9907C205.666 49.4416 205.278 48.8957 204.886 48.353L205.291 48.0601C202.152 43.7176 198.703 39.5809 194.959 35.6865L194.599 36.0331C194.367 35.7917 194.134 35.5514 193.899 35.3119C193.668 35.0757 193.436 34.8405 193.203 34.6065L193.557 34.2538C189.787 30.4669 185.785 26.9754 181.585 23.7939L181.283 24.1924C180.757 23.7935 180.227 23.3994 179.694 23.0103L179.989 22.6065C175.687 19.4645 171.187 16.6421 166.524 14.1546L166.288 14.5958C165.706 14.285 165.121 13.9795 164.533 13.6793L164.761 13.2341C160.031 10.8169 155.141 8.74038 150.128 7.01989L149.965 7.49281C149.341 7.27858 148.715 7.0699 148.087 6.86679L148.241 6.39105C143.202 4.76131 138.044 3.48892 132.804 2.58925L132.72 3.08204C132.069 2.97038 131.418 2.8645 130.765 2.76441L130.841 2.27018C125.624 1.4702 120.33 1.03884 114.995 0.991087L114.991 1.49107C114.661 1.48811 114.33 1.48663 114 1.48663C113.67 1.48663 113.339 1.48811 113.009 1.49107L113.005 0.991087C107.67 1.03883 102.376 1.4702 97.1591 2.27018L97.2349 2.7644C96.5821 2.86449 95.9306 2.97038 95.2803 3.08203L95.1957 2.58924C89.9558 3.48891 84.7982 4.76131 79.7592 6.39105L79.9131 6.86679C79.285 7.0699 78.6589 7.27858 78.0347 7.49281L77.8724 7.01989C72.8592 8.74037 67.9693 10.8169 63.2391 13.2341L63.4666 13.6793C62.8791 13.9795 62.2941 14.285 61.7116 14.5958L61.4763 14.1546C56.8135 16.6421 52.3131 19.4645 48.0109 22.6065L48.3058 23.0103C47.773 23.3994 47.2432 23.7935 46.7166 24.1924L46.4147 23.7939C42.2148 26.9754 38.2127 30.4669 34.4426 34.2537L34.797 34.6065C34.564 34.8405 34.3319 35.0757 34.1008 35.3119C33.8665 35.5514 33.6334 35.7917 33.4014 36.0331L33.0409 35.6865C29.2968 39.5809 25.8479 43.7175 22.7089 48.0601L23.1141 48.353C22.7219 48.8957 22.3344 49.4416 21.9519 49.9907L21.5417 49.7049C18.4624 54.1248 15.6987 58.7485 13.2656 63.5389L13.7113 63.7653C13.4082 64.3621 13.1102 64.9615 12.8174 65.5635L12.3678 65.3447C10.0171 70.1773 7.99899 75.1719 6.32842 80.2917L6.80375 80.4468C6.59618 81.0829 6.394 81.721 6.19724 82.361L5.71932 82.214C4.14351 87.3391 2.91371 92.5835 2.04473 97.9107L2.53821 97.9911C2.43048 98.6516 2.32831 99.3133 2.23175 99.9762L1.73697 99.9042Z" stroke="#7A7A7A" stroke-dasharray="2 16"/>
</svg>
