<svg width="25" height="25" viewBox="0 0 25 25" fill="none" xmlns="http://www.w3.org/2000/svg">
<g id="Bookmark 3">
<g id="Mask group">
<mask id="mask0_92_1961" style="mask-type:alpha" maskUnits="userSpaceOnUse" x="4" y="2" width="17" height="22">
<g id="Group">
<path id="Vector" fill-rule="evenodd" clip-rule="evenodd" d="M4.11499 2.07019H20.5487V23.0143H4.11499V2.07019Z" fill="white"/>
</g>
</mask>
<g mask="url(#mask0_92_1961)">
<g id="Group_2">
<path id="Vector_2" fill-rule="evenodd" clip-rule="evenodd" d="M9.26727 3.5772C6.8088 3.5772 5.56172 4.56379 5.56172 6.51185V21.3047C5.56172 21.3991 5.6138 21.4503 5.6572 21.4765C5.70061 21.5046 5.76908 21.5247 5.84817 21.4785L12.0035 17.8817C12.2234 17.7541 12.4925 17.7531 12.7134 17.8827L18.8157 21.4734C18.8957 21.5217 18.9642 21.4996 19.0076 21.4724C19.051 21.4453 19.1021 21.3941 19.1021 21.2996V6.6957C19.1021 5.92512 19.1021 3.5772 15.4004 3.5772H9.26727ZM5.75365 23.0146C5.46913 23.0146 5.18461 22.9352 4.92612 22.7765C4.41784 22.4681 4.11499 21.9165 4.11499 21.3047V6.51185C4.11499 3.68872 5.99284 2.07019 9.26727 2.07019H15.4004C18.672 2.07019 20.5489 3.75704 20.5489 6.6957V21.2996C20.5489 21.9125 20.246 22.464 19.7368 22.7725C19.2294 23.0819 18.618 23.0879 18.1048 22.7865L12.3565 19.4038L6.55514 22.7936C6.30437 22.9403 6.0295 23.0146 5.75365 23.0146Z" fill="#5A90E2"/>
</g>
</g>
</g>
<path id="Vector_3" fill-rule="evenodd" clip-rule="evenodd" d="M15.8232 10.3371H8.76511C8.36582 10.3371 8.04175 9.99952 8.04175 9.58358C8.04175 9.16765 8.36582 8.83008 8.76511 8.83008H15.8232C16.2225 8.83008 16.5466 9.16765 16.5466 9.58358C16.5466 9.99952 16.2225 10.3371 15.8232 10.3371Z" fill="#5A90E2"/>
</g>
</svg>
