<svg width="25" height="25" viewBox="0 0 25 25" fill="none" xmlns="http://www.w3.org/2000/svg">
<g id="Discount 1">
<g id="Iconly/Light-Outline/Discount">
<g id="Discount">
<g id="Group 3">
<g id="Mask group">
<mask id="mask0_92_1971" style="mask-type:alpha" maskUnits="userSpaceOnUse" x="2" y="2" width="21" height="21">
<g id="Group">
<path id="Clip 2" fill-rule="evenodd" clip-rule="evenodd" d="M2.80396 2.07507H22.9002V22.1695H2.80396V2.07507Z" fill="white"/>
</g>
</mask>
<g mask="url(#mask0_92_1971)">
<g id="Group_2">
<path id="Fill 1" fill-rule="evenodd" clip-rule="evenodd" d="M11.7905 20.2348C12.3833 20.8135 13.3377 20.8064 13.9264 20.2147L14.6518 19.4913C15.2144 18.9297 15.992 18.6092 16.7847 18.6092H17.8195C18.6574 18.6092 19.3386 17.9281 19.3386 17.0912V16.0574C19.3386 15.2526 19.6501 14.4961 20.2187 13.9265L20.9421 13.2021C21.2364 12.9067 21.3942 12.5239 21.3932 12.118C21.3922 11.7132 21.2324 11.3324 20.9441 11.045L20.2197 10.3197C19.6501 9.74602 19.3386 8.9905 19.3386 8.18576V7.15396C19.3386 6.31606 18.6574 5.6349 17.8195 5.6349H16.7867C15.982 5.6349 15.2255 5.32244 14.6558 4.75681L13.9305 4.03043C13.3266 3.43265 12.3632 3.43567 11.7734 4.02943L11.0511 4.7538C10.4744 5.32345 9.71783 5.6349 8.91611 5.6349H7.8823C7.0454 5.6359 6.36424 6.31707 6.36424 7.15396V8.18375C6.36424 8.98849 6.05178 9.74501 5.48515 10.3157L4.77183 11.03C4.7648 11.038 4.75776 11.044 4.75073 11.0511C4.16099 11.6448 4.164 12.6083 4.75776 13.1981L5.48314 13.9234C6.05178 14.4941 6.36424 15.2506 6.36424 16.0554V17.0912C6.36424 17.9281 7.0444 18.6092 7.8823 18.6092H8.9141C9.71984 18.6102 10.4764 18.9227 11.046 19.4903L11.7704 20.2127C11.7764 20.2197 11.7835 20.2268 11.7905 20.2348ZM12.8494 22.1698C12.0788 22.1698 11.3083 21.8784 10.7185 21.2937C10.7105 21.2857 10.7024 21.2776 10.6944 21.2686L9.98106 20.5563C9.69674 20.274 9.31697 20.1172 8.91309 20.1162H7.8823C6.21354 20.1162 4.85723 18.7589 4.85723 17.0912V16.0554C4.85723 15.6515 4.69949 15.2727 4.41618 14.9874L3.69382 14.266C2.52036 13.0986 2.50629 11.1978 3.65865 10.0123C3.66769 10.0032 3.67674 9.99417 3.68578 9.98513L4.41718 9.25172C4.69949 8.9674 4.85723 8.58662 4.85723 8.18375V7.15396C4.85723 5.4862 6.21354 4.12889 7.88129 4.12789H8.91611C9.31898 4.12789 9.69875 3.97015 9.98709 3.68583L10.7054 2.96548C11.8799 1.78298 13.7999 1.77695 14.9844 2.95443L15.7188 3.68884C16.0031 3.97116 16.3829 4.12789 16.7867 4.12789H17.8195C19.4883 4.12789 20.8456 5.4852 20.8456 7.15396V8.18576C20.8456 8.58863 21.0023 8.9694 21.2867 9.25574L22.008 9.9781C22.5797 10.5457 22.8972 11.3043 22.9002 12.113C22.9032 12.9218 22.5907 13.6823 22.0211 14.256L21.2847 14.9904C21.0024 15.2747 20.8456 15.6535 20.8456 16.0574V17.0912C20.8456 18.7589 19.4883 20.1162 17.8206 20.1162H16.7847C16.3869 20.1162 15.9981 20.277 15.7158 20.5573L14.9944 21.2786C14.4047 21.8724 13.627 22.1698 12.8494 22.1698Z" fill="#1B1A1E" fill-opacity="0.4"/>
</g>
</g>
</g>
</g>
<path id="Fill 4" fill-rule="evenodd" clip-rule="evenodd" d="M10.2689 15.4586C10.076 15.4586 9.88308 15.3853 9.7364 15.2376C9.44203 14.9432 9.44203 14.467 9.7364 14.1726L14.9004 9.00764C15.1948 8.71327 15.672 8.71327 15.9664 9.00764C16.2607 9.30201 16.2607 9.77923 15.9664 10.0736L10.8014 15.2376C10.6547 15.3853 10.4618 15.4586 10.2689 15.4586Z" fill="#1B1A1E" fill-opacity="0.4"/>
<path id="Fill 6" fill-rule="evenodd" clip-rule="evenodd" d="M15.3657 15.6372C14.8101 15.6372 14.356 15.1881 14.356 14.6325C14.356 14.0769 14.801 13.6278 15.3566 13.6278H15.3657C15.9212 13.6278 16.3703 14.0769 16.3703 14.6325C16.3703 15.1881 15.9212 15.6372 15.3657 15.6372Z" fill="#1B1A1E" fill-opacity="0.4"/>
<path id="Fill 8" fill-rule="evenodd" clip-rule="evenodd" d="M10.3422 10.6139C9.78663 10.6139 9.33252 10.1648 9.33252 9.60917C9.33252 9.05358 9.77759 8.60449 10.3332 8.60449H10.3422C10.8978 8.60449 11.3468 9.05358 11.3468 9.60917C11.3468 10.1648 10.8978 10.6139 10.3422 10.6139Z" fill="#1B1A1E" fill-opacity="0.4"/>
</g>
</g>
</g>
</svg>
