<svg width="22" height="22" viewBox="0 0 22 22" fill="none" xmlns="http://www.w3.org/2000/svg">
<g id="edit (1) 1">
<g id="Group">
<path id="Vector" d="M13.7499 20.8542H8.24992C3.27242 20.8542 1.14575 18.7275 1.14575 13.75V8.25001C1.14575 3.27251 3.27242 1.14584 8.24992 1.14584H10.0833C10.4591 1.14584 10.7708 1.45751 10.7708 1.83334C10.7708 2.20918 10.4591 2.52084 10.0833 2.52084H8.24992C4.02409 2.52084 2.52075 4.02418 2.52075 8.25001V13.75C2.52075 17.9758 4.02409 19.4792 8.24992 19.4792H13.7499C17.9758 19.4792 19.4791 17.9758 19.4791 13.75V11.9167C19.4791 11.5408 19.7908 11.2292 20.1666 11.2292C20.5424 11.2292 20.8541 11.5408 20.8541 11.9167V13.75C20.8541 18.7275 18.7274 20.8542 13.7499 20.8542Z" fill="#1B1A1E"/>
<path id="Vector_2" d="M7.79196 16.2159C7.2328 16.2159 6.71946 16.0143 6.34363 15.6476C5.89446 15.1984 5.70196 14.5476 5.8028 13.8601L6.19696 11.1009C6.2703 10.5693 6.61863 9.88176 6.99446 9.50592L14.2178 2.28255C16.0419 0.458387 17.8936 0.458387 19.7178 2.28255C20.7169 3.28172 21.1661 4.29922 21.0744 5.31672C20.9919 6.14172 20.5519 6.94839 19.7178 7.77339L12.4944 14.9968C12.1186 15.3726 11.4311 15.7209 10.8994 15.7943L8.1403 16.1884C8.02113 16.2159 7.90196 16.2159 7.79196 16.2159ZM15.1894 3.25422L7.96613 10.4776C7.79196 10.6518 7.5903 11.0551 7.55363 11.2934L7.15946 14.0526C7.1228 14.3184 7.1778 14.5384 7.3153 14.6759C7.4528 14.8134 7.6728 14.8684 7.93863 14.8318L10.6978 14.4376C10.9361 14.4009 11.3486 14.1993 11.5136 14.0251L18.7369 6.80172C19.3328 6.20589 19.6444 5.67422 19.6903 5.17922C19.7453 4.58339 19.4336 3.95089 18.7369 3.24505C17.2703 1.77839 16.2619 2.19089 15.1894 3.25422Z" fill="#1B1A1E"/>
<path id="Vector_3" d="M18.1954 9.01085C18.1313 9.01085 18.0671 9.00168 18.0121 8.98335C15.6013 8.30501 13.6854 6.38918 13.0071 3.97835C12.9063 3.61168 13.1171 3.23585 13.4838 3.12585C13.8504 3.02501 14.2263 3.23585 14.3271 3.60251C14.8771 5.55501 16.4263 7.10418 18.3788 7.65418C18.7454 7.75501 18.9563 8.14002 18.8554 8.50668C18.7729 8.81835 18.4979 9.01085 18.1954 9.01085Z" fill="#1B1A1E"/>
</g>
</g>
</svg>
