<svg width="60" height="60" viewBox="0 0 60 60" fill="none" xmlns="http://www.w3.org/2000/svg">
<g id="businessman 1" clip-path="url(#clip0_75_33323)">
<g id="Group">
<g id="Group_2">
<g id="Group_3">
<path id="Vector" d="M42.4617 20.5728V8.08661C42.4617 6.60266 41.2587 5.39961 39.7747 5.39961C39.4511 5.39961 39.1888 5.13723 39.1888 4.81368C39.1888 2.64008 37.4268 0.878052 35.2532 0.878052H17.1741C16.1209 0.878052 15.3041 1.79786 15.4286 2.84364L17.5384 20.5728H42.4617Z" fill="#685E68"/>
<path id="Vector_2" d="M40.947 5.39961C40.6233 5.39961 40.361 5.13723 40.361 4.81368C40.361 2.64008 38.599 0.878052 36.4254 0.878052H32.9097C35.0833 0.878052 36.8453 2.64008 36.8453 4.81368C36.8453 5.13723 37.1077 5.39961 37.4312 5.39961C38.9152 5.39961 40.1182 6.60266 40.1182 8.08661L38.9463 20.5728H42.4621L43.634 8.08661C43.634 6.60266 42.4309 5.39961 40.947 5.39961Z" fill="#554E56"/>
<path id="Vector_3" d="M41.1005 17.1001H40.3608L39.189 24.0247H41.1006C43.0128 24.0247 44.5629 22.4746 44.5629 20.5624C44.5628 18.6503 43.0128 17.1001 41.1005 17.1001Z" fill="#F6A96C"/>
<path id="Vector_4" d="M18.8998 24.0248H20.8114L19.6395 17.1002H18.8998C16.9877 17.1002 15.4375 18.6504 15.4375 20.5625C15.4375 22.4747 16.9877 24.0248 18.8998 24.0248Z" fill="#FFBD86"/>
<path id="Vector_5" d="M49.6015 59.1202H43.8815L43.0026 57.9484L42.1237 59.1202H33.8867L30.3315 57.9484L26.114 59.1202H17.877L16.9981 57.9484L16.1192 59.1202H9.22713C8.20912 59.1202 7.40393 58.2581 7.47342 57.2424L8.4033 43.646C8.54463 41.5787 10.0267 39.8493 12.0481 39.3931L24.2192 36.6462H35.8341L44.1042 38.519L47.6044 39.5084C49.6241 39.9658 51.1044 41.6944 51.2458 43.7605L51.3555 57.2424C51.4247 58.2581 50.6195 59.1202 49.6015 59.1202Z" fill="#F3F0F3"/>
<path id="Vector_6" d="M52.5271 57.2424L51.5971 43.6433C51.4558 41.5772 49.9755 39.8487 47.9557 39.3913L44.104 38.519C45.658 39.2968 46.7264 40.8499 46.849 42.6416L47.8392 57.1209C47.9132 58.2023 47.056 59.1203 45.972 59.1203H50.7734C51.7914 59.1203 52.5965 58.2581 52.5271 57.2424Z" fill="#E2DEE2"/>
<path id="Vector_7" d="M30.0267 43.2746C26.8193 43.2746 24.2192 40.6746 24.2192 37.4672V30.5299H35.8342V37.4672C35.834 40.6746 33.234 43.2746 30.0267 43.2746Z" fill="#F6A96C"/>
<path id="Vector_8" d="M26.1143 44.3216L30.0002 49.3408L33.8861 44.3216V42.0707H26.1143V44.3216Z" fill="#FD8087"/>
<path id="Vector_9" d="M26.1138 59.1219L30.0001 49.3407L33.8863 59.1219H26.1138Z" fill="#FD8087"/>
<path id="Vector_10" d="M35.4418 35.7302L29.9736 42.0705L35.4684 46.1061C35.8188 46.3635 36.3177 46.163 36.3925 45.7348L37.8383 37.4584C37.873 37.2602 37.8034 37.0581 37.6542 36.9231L36.2787 35.6784C36.0347 35.4576 35.6568 35.4811 35.4418 35.7302Z" fill="#E2DEE2"/>
<path id="Vector_11" d="M24.6038 35.7301L29.9739 42.0707L24.5334 46.1005C24.1831 46.36 23.6822 46.1597 23.6073 45.7303L22.163 37.4478C22.1279 37.2462 22.2005 37.0409 22.3546 36.9061L23.7709 35.6678C24.0174 35.4523 24.3924 35.4804 24.6038 35.7301Z" fill="#E2DEE2"/>
<path id="Vector_12" d="M34.5416 8.13112C34.1415 8.43815 33.6729 8.54292 33.1384 8.89741C30.4902 10.6536 26.2254 12.7853 20.675 13.2424C20.4386 13.2618 20.2351 13.4184 20.1615 13.644C19.8232 14.6805 19.6396 15.7885 19.6396 16.9399V24.2057C19.6396 29.3951 23.3575 33.7047 28.2424 34.5505C28.8138 34.6494 29.4011 34.5837 30.0003 34.5837C35.7223 34.5837 39.189 30.0021 39.189 24.2057V16.9399C39.189 13.0612 38.2835 9.90886 35.1945 8.09222C34.9893 7.9714 34.7305 7.98616 34.5416 8.13112Z" fill="#FED2A4"/>
<path id="Vector_13" d="M34.5416 7.89682C34.1414 8.20373 33.6721 8.54275 33.1382 8.89689C35.404 10.8219 36.8454 13.7098 36.8454 16.9398V24.2057C36.8454 29.395 33.1273 33.704 28.2427 34.5498C28.8141 34.6487 29.4013 34.701 30.0005 34.701C35.7225 34.701 40.3612 30.0021 40.3612 24.2058V16.9399C40.3612 13.0612 38.2837 9.67443 35.1947 7.85779C34.9893 7.73697 34.7306 7.75185 34.5416 7.89682Z" fill="#FFBD86"/>
</g>
</g>
<g id="Group_4">
<path id="Vector_14" d="M33.15 27.7285C32.979 27.274 32.4718 27.0443 32.0179 27.2152C30.6016 27.7478 29.2895 27.7509 28.0067 27.2247C27.5577 27.0406 27.0442 27.2553 26.8599 27.7042C26.6757 28.1534 26.8904 28.6668 27.3395 28.851C28.188 29.1991 29.06 29.3731 29.9491 29.3731C30.8301 29.3731 31.728 29.2022 32.6367 28.8605C33.091 28.6896 33.3208 28.1828 33.15 27.7285Z" fill="black"/>
<path id="Vector_15" d="M25.0977 18.6198C24.6123 18.6198 24.2188 19.0133 24.2188 19.4987V20.8508C24.2188 21.3362 24.6123 21.7297 25.0977 21.7297C25.583 21.7297 25.9766 21.3362 25.9766 20.8508V19.4987C25.9766 19.0133 25.583 18.6198 25.0977 18.6198Z" fill="black"/>
<path id="Vector_16" d="M34.9023 21.7297C35.3877 21.7297 35.7812 21.3362 35.7812 20.8508V19.4987C35.7812 19.0133 35.3877 18.6198 34.9023 18.6198C34.417 18.6198 34.0234 19.0133 34.0234 19.4987V20.8508C34.0234 21.3362 34.417 21.7297 34.9023 21.7297Z" fill="black"/>
<path id="Vector_17" d="M36.7128 34.9063V33.324C39.2868 31.3784 41.012 28.344 41.2182 24.9016C43.5577 24.8389 45.4418 22.9178 45.4418 20.5634C45.4418 19.132 44.7452 17.8607 43.6736 17.0694L44.5089 8.16961C44.5115 8.1423 44.5128 8.11488 44.5128 8.08746C44.5128 6.21715 43.0653 4.67848 41.2318 4.53293C41.085 2.00883 38.9853 0 36.4252 0H17.1742C16.4213 0 15.7026 0.322852 15.2027 0.885938C14.7026 1.44891 14.467 2.20078 14.5559 2.94844L15.009 6.75539C15.0663 7.23738 15.5033 7.58262 15.9856 7.52426C16.4676 7.46695 16.8119 7.02973 16.7545 6.54762L16.3014 2.74066C16.2713 2.48777 16.3478 2.24367 16.517 2.05324C16.6861 1.86281 16.9196 1.75793 17.1742 1.75793H36.4253C38.1107 1.75793 39.4819 3.12914 39.4819 4.81465C39.4819 5.62242 40.1391 6.27949 40.9468 6.27949C41.9314 6.27949 42.7346 7.07051 42.7544 8.05031L41.9791 16.3116C41.732 16.2606 41.477 16.232 41.2166 16.2251C40.9798 12.4616 38.8891 9.01195 35.64 7.10109C35.1228 6.79699 34.4814 6.8359 34.0063 7.20047C31.7913 8.90039 27.1045 11.8321 20.6029 12.3674C20.0105 12.4161 19.5092 12.8105 19.3259 13.3721C19.0245 14.2955 18.8447 15.2523 18.7849 16.2251C18.488 16.2328 18.1986 16.2704 17.9193 16.3352L17.2168 10.4318C17.1595 9.9498 16.7224 9.60504 16.2401 9.66293C15.7581 9.72023 15.4138 10.1576 15.4713 10.6396L16.244 17.1332C15.2198 17.928 14.5586 19.1696 14.5586 20.5636C14.5586 22.9179 16.4427 24.8392 18.7823 24.9019C18.9898 28.3675 20.7373 31.4189 23.34 33.3629V34.8949L21.7084 36.3128L11.8544 38.5369C9.47266 39.0744 7.69282 41.1511 7.5263 43.587L7.24833 47.6507C7.21517 48.1349 7.58091 48.5544 8.06524 48.5875C8.08563 48.5889 8.10591 48.5896 8.12618 48.5896C8.58427 48.5896 8.9704 48.2344 9.00216 47.7705L9.28013 43.7068C9.39415 42.0401 10.6118 40.6193 12.2415 40.2514L21.3992 38.1846L22.7415 45.8822C22.9246 46.9322 24.1933 47.4471 25.0565 46.8077L26.2452 45.9272L28.9983 49.4831L25.518 58.2422H17.8769V51.272C17.8769 50.7866 17.4834 50.3931 16.998 50.3931C16.5126 50.3931 16.1191 50.7866 16.1191 51.272V58.2422H9.22704C8.98083 58.2422 8.75266 58.143 8.58473 57.9632C8.41669 57.7833 8.33337 57.5489 8.35013 57.3033L8.73298 51.7044C8.76614 51.2202 8.40028 50.8007 7.91606 50.7676C7.43173 50.7339 7.01231 51.1002 6.97927 51.5845L6.59641 57.1834C6.54673 57.9095 6.80325 58.6311 7.30001 59.163C7.79677 59.6948 8.49919 60 9.22704 60H50.7733C51.5011 60 52.2034 59.6948 52.7003 59.1629C53.1971 58.631 53.4536 57.9094 53.4039 57.1833L52.4739 43.5841C52.3048 41.1114 50.567 39.0823 48.1497 38.5349L43.6642 37.5191C43.1908 37.4121 42.72 37.7088 42.6129 38.1823C42.5057 38.6557 42.8027 39.1263 43.2761 39.2336L47.7616 40.2493C49.4154 40.6239 50.6044 42.0122 50.7202 43.704L51.6502 57.3032C51.667 57.5488 51.5838 57.7832 51.4157 57.963C51.2477 58.1429 51.0196 58.2421 50.7734 58.2421H43.8815V51.2719C43.8815 50.7865 43.488 50.393 43.0026 50.393C42.5172 50.393 42.1237 50.7865 42.1237 51.2719V58.2422H34.4826L31.0024 49.483L33.7493 45.9349L34.9484 46.8156C35.8106 47.4486 37.0752 46.9352 37.2585 45.8869L38.6055 38.1758L39.3911 38.3537C39.4565 38.3685 39.5218 38.3756 39.5861 38.3756C39.9876 38.3756 40.3502 38.0987 40.4425 37.6907C40.5497 37.2172 40.2528 36.7465 39.7795 36.6393L38.2684 36.2971L36.7128 34.9063ZM36.9447 37.4672L35.6081 45.1192L31.26 41.9258L35.9116 36.5324L36.9447 37.4672ZM41.2397 23.1429V17.9838C42.5997 18.0564 43.6839 19.1856 43.6839 20.5635C43.6839 21.9411 42.5997 23.0704 41.2397 23.1429ZM16.3164 20.5634C16.3164 19.1856 17.4006 18.0564 18.7606 17.9838V23.1429C17.4006 23.0704 16.3164 21.9411 16.3164 20.5634ZM20.5185 24.2066V16.9407C20.5185 15.9727 20.6597 15.019 20.9385 14.1028C27.6368 13.503 32.5094 10.5321 34.9162 8.71699C37.7375 10.4561 39.4819 13.5887 39.4819 16.9407V24.2066C39.4819 29.509 35.2285 33.8229 30.0003 33.8229C24.7721 33.8229 20.5185 29.509 20.5185 24.2066ZM30.0002 35.5807C31.7774 35.5807 33.4593 35.1604 34.9549 34.414V34.9841C34.8915 35.0366 34.8311 35.0934 34.7763 35.1571L29.9797 40.7187L25.2742 35.1629C25.2201 35.0991 25.1604 35.0416 25.0977 34.9888V34.4403C26.5802 35.1705 28.2436 35.5807 30.0002 35.5807ZM24.3916 45.1125L23.0572 37.46L24.1253 36.5261L28.6967 41.9236L24.3916 45.1125ZM29.9759 43.1636L32.332 44.8939L30.0002 47.9059L27.6579 44.8806L29.9759 43.1636ZM30.0002 51.7219L32.5908 58.2422H27.4096L30.0002 51.7219Z" fill="black"/>
</g>
</g>
</g>
<defs>
<clipPath id="clip0_75_33323">
<rect width="60" height="60" fill="white"/>
</clipPath>
</defs>
</svg>
