<svg width="85" height="7" viewBox="0 0 85 7" fill="none" xmlns="http://www.w3.org/2000/svg">
<path id="Ellipse 1 copy 6" opacity="0.9" d="M78.53 3.11272C78.53 2.29589 78.8545 1.51251 79.4321 0.934922C80.0097 0.357333 80.793 0.0328472 81.6099 0.0328472C82.4267 0.0328472 83.2101 0.357333 83.7877 0.934922C84.3653 1.51251 84.6897 2.29589 84.6897 3.11272C84.6897 3.92956 84.3653 4.71293 83.7877 5.29052C83.2101 5.86811 82.4267 6.1926 81.6099 6.1926C80.793 6.1926 80.0097 5.86811 79.4321 5.29052C78.8545 4.71293 78.53 3.92956 78.53 3.11272ZM65.4413 3.11272C65.4413 2.29589 65.7658 1.51251 66.3433 0.934922C66.9209 0.357333 67.7043 0.0328472 68.5211 0.0328472C69.338 0.0328472 70.1214 0.357333 70.6989 0.934922C71.2765 1.51251 71.601 2.29589 71.601 3.11272C71.601 3.92956 71.2765 4.71293 70.6989 5.29052C70.1214 5.86811 69.338 6.1926 68.5211 6.1926C67.7043 6.1926 66.9209 5.86811 66.3433 5.29052C65.7658 4.71293 65.4413 3.92956 65.4413 3.11272ZM52.3537 3.11272C52.3537 2.29605 52.6782 1.51282 53.2556 0.935344C53.8331 0.357867 54.6163 0.0334444 55.433 0.0334444C56.2497 0.0334444 57.0329 0.357867 57.6104 0.935344C58.1879 1.51282 58.5123 2.29605 58.5123 3.11272C58.5123 3.9294 58.1879 4.71262 57.6104 5.2901C57.0329 5.86758 56.2497 6.192 55.433 6.192C54.6163 6.192 53.8331 5.86758 53.2556 5.2901C52.6782 4.71262 52.3537 3.9294 52.3537 3.11272ZM39.265 3.11272C39.265 2.29589 39.5895 1.51251 40.1671 0.934922C40.7447 0.357333 41.5281 0.0328472 42.3449 0.0328472C43.1617 0.0328472 43.9451 0.357333 44.5227 0.934922C45.1003 1.51251 45.4248 2.29589 45.4248 3.11272C45.4248 3.92956 45.1003 4.71293 44.5227 5.29052C43.9451 5.86811 43.1617 6.1926 42.3449 6.1926C41.5281 6.1926 40.7447 5.86811 40.1671 5.29052C39.5895 4.71293 39.265 3.92956 39.265 3.11272ZM26.1763 3.11272C26.1763 2.29589 26.5008 1.51251 27.0784 0.934922C27.656 0.357333 28.4393 0.0328472 29.2562 0.0328472C30.073 0.0328472 30.8564 0.357333 31.434 0.934922C32.0116 1.51251 32.336 2.29589 32.336 3.11272C32.336 3.92956 32.0116 4.71293 31.434 5.29052C30.8564 5.86811 30.073 6.1926 29.2562 6.1926C28.4393 6.1926 27.656 5.86811 27.0784 5.29052C26.5008 4.71293 26.1763 3.92956 26.1763 3.11272ZM13.0876 3.11272C13.0876 2.29589 13.4121 1.51251 13.9896 0.934922C14.5672 0.357333 15.3506 0.0328472 16.1674 0.0328472C16.9843 0.0328472 17.7677 0.357333 18.3453 0.934922C18.9228 1.51251 19.2473 2.29589 19.2473 3.11272C19.2473 3.92956 18.9228 4.71293 18.3453 5.29052C17.7677 5.86811 16.9843 6.1926 16.1674 6.1926C15.3506 6.1926 14.5672 5.86811 13.9896 5.29052C13.4121 4.71293 13.0876 3.92956 13.0876 3.11272ZM4.54074e-05 3.11272C-0.00215653 2.70615 0.0757453 2.30312 0.229303 1.92665C0.382861 1.55019 0.609067 1.20765 0.895005 0.918609C1.18094 0.629564 1.52101 0.399672 1.8958 0.242056C2.27059 0.0844409 2.67275 0.00219007 3.07932 0C3.486 0.00203372 3.88829 0.0841693 4.26321 0.241715C4.63814 0.39926 4.97835 0.629128 5.26441 0.918188C5.55048 1.20725 5.77679 1.54984 5.93042 1.92638C6.08406 2.30292 6.162 2.70605 6.1598 3.11272C6.16184 3.5193 6.08378 3.92229 5.93008 4.2987C5.77638 4.6751 5.55004 5.01755 5.26399 5.30648C4.97794 5.59542 4.63778 5.82518 4.26294 5.98265C3.88809 6.14012 3.4859 6.22222 3.07932 6.22425C2.25842 6.21983 1.47287 5.88956 0.895429 5.30606C0.317984 4.72257 -0.00408377 3.93363 4.54074e-05 3.11272Z" fill="#1B1A1E" fill-opacity="0.3"/>
</svg>
