<svg width="32" height="32" viewBox="0 0 32 32" fill="none" xmlns="http://www.w3.org/2000/svg">
<g id="Frame 5">
<path id="back" d="M28.2183 16.5207L6.48082 16.5207L10.3915 20.6619C10.5917 20.8859 10.7019 21.1843 10.6986 21.4934C10.6953 21.8025 10.5788 22.0981 10.3738 22.3172C10.1688 22.5363 9.89156 22.6616 9.60106 22.6665C9.31056 22.6714 9.02972 22.5555 8.81831 22.3434L2.99396 16.1747C2.8903 16.0645 2.80807 15.9336 2.75197 15.7895C2.69587 15.6455 2.66699 15.4911 2.66699 15.3352C2.66699 15.1793 2.69587 15.0248 2.75197 14.8808C2.80807 14.7368 2.8903 14.6059 2.99396 14.4957L8.81949 8.32317C9.0309 8.11111 9.31173 7.9952 9.60223 8.00011C9.89273 8.00501 10.17 8.13035 10.3749 8.34944C10.5799 8.56853 10.6965 8.86409 10.6998 9.17322C10.7031 9.48235 10.5929 9.78064 10.3927 10.0046L6.48199 14.1459L28.2183 14.1459C28.5141 14.1459 28.7978 14.2709 29.007 14.4935C29.2162 14.7161 29.3337 15.0179 29.3337 15.3327C29.3337 15.6474 29.2162 15.9493 29.007 16.1718C28.7978 16.3944 28.5141 16.5207 28.2183 16.5207Z" fill="#1B1A1E"/>
</g>
</svg>
