<svg width="25" height="25" viewBox="0 0 25 25" fill="none" xmlns="http://www.w3.org/2000/svg">
<g id="Chat 2">
<g id="Mask group">
<mask id="mask0_84_748" style="mask-type:alpha" maskUnits="userSpaceOnUse" x="1" y="1" width="22" height="22">
<g id="Group">
<path id="Vector" fill-rule="evenodd" clip-rule="evenodd" d="M1.65186 1.07031H22.3815V22.6645H1.65186V1.07031Z" fill="white"/>
</g>
</mask>
<g mask="url(#mask0_84_748)">
<g id="Group_2">
<path id="Vector_2" fill-rule="evenodd" clip-rule="evenodd" d="M6.57887 19.8325C7.13827 19.8325 7.66585 20.0536 8.22429 20.2877C11.6453 21.9353 15.6913 21.1858 18.3272 18.4411C21.8052 14.8162 21.8052 8.91982 18.3272 5.29697C16.6432 3.54281 14.4037 2.57732 12.0195 2.57732C9.63436 2.57732 7.39386 3.54382 5.71084 5.29798C3.07393 8.04274 2.35635 12.2573 3.92364 15.7867C4.14933 16.3684 4.36731 16.9351 4.36731 17.5238C4.36731 18.1115 4.17344 18.7033 4.00273 19.2257C3.86192 19.6557 3.64876 20.3047 3.78572 20.4474C3.91979 20.5921 4.5467 20.364 4.96047 20.2163C5.45718 20.0395 6.02044 19.8366 6.57887 19.8325ZM11.9954 22.6647C10.5216 22.6647 9.03831 22.3402 7.65042 21.6711C7.24147 21.5003 6.85857 21.3395 6.58369 21.3395C6.26734 21.3416 5.84201 21.4943 5.43113 21.642C4.58817 21.9434 3.53881 22.3191 2.7624 21.5134C1.98888 20.7066 2.34574 19.6165 2.63316 18.7395C2.77494 18.3074 2.92058 17.8614 2.92058 17.5238C2.92058 17.2465 2.7923 16.8929 2.59555 16.3835C0.78906 12.3196 1.62431 7.42185 4.68848 4.23202C6.64446 2.19354 9.2476 1.07031 12.0185 1.07031C14.7895 1.07031 17.3936 2.19253 19.3496 4.23101C23.3927 8.4426 23.3927 15.2944 19.3496 19.506C17.3676 21.5716 14.6988 22.6647 11.9954 22.6647Z" fill="#1B1A1E" fill-opacity="0.4"/>
</g>
</g>
</g>
<path id="Vector_3" fill-rule="evenodd" clip-rule="evenodd" d="M15.8263 13.2896C15.2939 13.2896 14.8579 12.8405 14.8579 12.2849C14.8579 11.7294 15.2852 11.2803 15.8176 11.2803H15.8263C16.3587 11.2803 16.7907 11.7294 16.7907 12.2849C16.7907 12.8405 16.3587 13.2896 15.8263 13.2896Z" fill="#1B1A1E" fill-opacity="0.4"/>
<path id="Vector_4" fill-rule="evenodd" clip-rule="evenodd" d="M11.9596 13.2896C11.4272 13.2896 10.9912 12.8405 10.9912 12.2849C10.9912 11.7294 11.4175 11.2803 11.9509 11.2803H11.9596C12.492 11.2803 12.924 11.7294 12.924 12.2849C12.924 12.8405 12.492 13.2896 11.9596 13.2896Z" fill="#1B1A1E" fill-opacity="0.4"/>
<path id="Vector_5" fill-rule="evenodd" clip-rule="evenodd" d="M8.09237 13.2896C7.55997 13.2896 7.12402 12.8405 7.12402 12.2849C7.12402 11.7294 7.55129 11.2803 8.08369 11.2803H8.09237C8.62476 11.2803 9.05685 11.7294 9.05685 12.2849C9.05685 12.8405 8.62476 13.2896 8.09237 13.2896Z" fill="#1B1A1E" fill-opacity="0.4"/>
</g>
</svg>
