<svg width="34" height="34" viewBox="0 0 34 34" fill="none" xmlns="http://www.w3.org/2000/svg">
<g id="close 1">
<g id="02 User">
<path id="Vector" d="M17.77 30.0406C17.6177 30.1929 17.4237 30.2966 17.2125 30.3386C17.0012 30.3807 16.7822 30.3591 16.5832 30.2767C16.3842 30.1943 16.214 30.0547 16.0944 29.8755C15.9747 29.6964 15.9108 29.4858 15.9109 29.2704C15.9109 29.2704 15.9109 29.2704 15.9109 29.2704L15.9109 4.72854C15.9109 4.43968 16.0256 4.16264 16.2299 3.95838C16.4341 3.75412 16.7112 3.63937 17 3.63937C17.2889 3.63936 17.5659 3.75412 17.7702 3.95838C17.9745 4.16264 18.0892 4.43968 18.0892 4.72854L18.0892 29.2703C18.0894 29.4134 18.0612 29.5551 18.0065 29.6873C17.9517 29.8195 17.8713 29.9396 17.77 30.0406ZM17.77 30.0406L17.6641 29.9344M17.77 30.0406L17.6641 29.9344M17.77 30.0406C17.77 30.0406 17.7701 30.0405 17.7701 30.0405L17.6641 29.9344M17.77 30.0406L17.6641 29.9344" fill="white" stroke="white" stroke-width="0.3"/>
<path id="Vector_2" d="M30.0412 17.7694C29.9401 17.8708 29.82 17.9511 29.6878 18.0059C29.5556 18.0607 29.4139 18.0888 29.2708 18.0887L4.72908 18.0887C4.44021 18.0887 4.16317 17.9739 3.95891 17.7697C3.75465 17.5654 3.6399 17.2884 3.6399 16.9995C3.6399 16.7106 3.75465 16.4336 3.95891 16.2293C4.16317 16.0251 4.44021 15.9103 4.72908 15.9103L29.2709 15.9103C29.2709 15.9103 29.2709 15.9103 29.2709 15.9103C29.4864 15.9103 29.6969 15.9742 29.8761 16.0938C30.0552 16.2135 30.1948 16.3836 30.2772 16.5827C30.3597 16.7817 30.3812 17.0007 30.3392 17.212C30.2971 17.4232 30.1934 17.6172 30.0412 17.7694ZM30.0412 17.7694C30.0411 17.7695 30.0411 17.7696 30.041 17.7696L29.935 17.6635L30.0412 17.7694Z" fill="white" stroke="white" stroke-width="0.3"/>
</g>
</g>
</svg>
