<svg width="26" height="25" viewBox="0 0 26 25" fill="none" xmlns="http://www.w3.org/2000/svg">
<g id="Discount 1">
<g id="Iconly/Light-Outline/Discount">
<g id="Discount">
<g id="Group 3">
<g id="Mask group">
<mask id="mask0_84_735" style="mask-type:alpha" maskUnits="userSpaceOnUse" x="2" y="2" width="22" height="21">
<g id="Group">
<path id="Clip 2" fill-rule="evenodd" clip-rule="evenodd" d="M2.95361 2.0752H23.0498V22.1696H2.95361V2.0752Z" fill="white"/>
</g>
</mask>
<g mask="url(#mask0_84_735)">
<g id="Group_2">
<path id="Fill 1" fill-rule="evenodd" clip-rule="evenodd" d="M11.9402 20.235C12.5329 20.8137 13.4874 20.8067 14.0761 20.2149L14.8015 19.4916C15.3641 18.93 16.1417 18.6095 16.9344 18.6095H17.9692C18.8071 18.6095 19.4883 17.9283 19.4883 17.0914V16.0576C19.4883 15.2529 19.7997 14.4963 20.3684 13.9267L21.0917 13.2023C21.3861 12.907 21.5438 12.5242 21.5428 12.1183C21.5418 11.7134 21.3821 11.3326 21.0937 11.0453L20.3694 10.3199C19.7997 9.74626 19.4883 8.99075 19.4883 8.186V7.15421C19.4883 6.31631 18.8071 5.63514 17.9692 5.63514H16.9364C16.1317 5.63514 15.3751 5.32269 14.8055 4.75706L14.0801 4.03068C13.4763 3.4329 12.5128 3.43591 11.9231 4.02967L11.2007 4.75404C10.624 5.32369 9.86749 5.63514 9.06576 5.63514H8.03196C7.19506 5.63614 6.51389 6.31731 6.51389 7.15421V8.18399C6.51389 8.98874 6.20144 9.74526 5.63481 10.3159L4.92149 11.0302C4.91446 11.0383 4.90742 11.0443 4.90039 11.0513C4.31065 11.6451 4.31366 12.6086 4.90742 13.1983L5.6328 13.9237C6.20144 14.4943 6.51389 15.2509 6.51389 16.0556V17.0914C6.51389 17.9283 7.19406 18.6095 8.03196 18.6095H9.06375C9.8695 18.6105 10.626 18.9229 11.1957 19.4906L11.9201 20.2129C11.9261 20.22 11.9331 20.227 11.9402 20.235ZM12.9991 22.17C12.2285 22.17 11.4579 21.8787 10.8681 21.294C10.8601 21.2859 10.8521 21.2779 10.844 21.2688L10.1307 20.5565C9.84639 20.2742 9.46663 20.1175 9.06275 20.1165H8.03196C6.36319 20.1165 5.00689 18.7592 5.00689 17.0914V16.0556C5.00689 15.6517 4.84915 15.273 4.56583 14.9876L3.84347 14.2663C2.67002 13.0988 2.65595 11.198 3.80831 10.0125C3.81735 10.0035 3.82639 9.99442 3.83544 9.98537L4.56684 9.25196C4.84915 8.96764 5.00689 8.58687 5.00689 8.18399V7.15421C5.00689 5.48645 6.36319 4.12914 8.03095 4.12813H9.06576C9.46864 4.12813 9.8484 3.9704 10.1367 3.68607L10.8551 2.96572C12.0296 1.78322 13.9495 1.7772 15.134 2.95467L15.8684 3.68909C16.1528 3.9714 16.5325 4.12813 16.9364 4.12813H17.9692C19.638 4.12813 20.9953 5.48544 20.9953 7.15421V8.186C20.9953 8.58888 21.152 8.96965 21.4363 9.25598L22.1577 9.97834C22.7293 10.546 23.0468 11.3045 23.0498 12.1133C23.0529 12.922 22.7404 13.6826 22.1707 14.2562L21.4343 14.9906C21.152 15.275 20.9953 15.6537 20.9953 16.0576V17.0914C20.9953 18.7592 19.638 20.1165 17.9702 20.1165H16.9344C16.5365 20.1165 16.1477 20.2772 15.8654 20.5575L15.1441 21.2789C14.5543 21.8727 13.7767 22.17 12.9991 22.17Z" fill="#1B1A1E" fill-opacity="0.4"/>
</g>
</g>
</g>
</g>
<path id="Fill 4" fill-rule="evenodd" clip-rule="evenodd" d="M10.4183 15.4588C10.2254 15.4588 10.0325 15.3855 9.88582 15.2378C9.59145 14.9435 9.59145 14.4672 9.88582 14.1729L15.0498 9.00789C15.3442 8.71352 15.8214 8.71352 16.1158 9.00789C16.4102 9.30226 16.4102 9.77947 16.1158 10.0738L10.9508 15.2378C10.8041 15.3855 10.6112 15.4588 10.4183 15.4588Z" fill="#1B1A1E" fill-opacity="0.4"/>
<path id="Fill 6" fill-rule="evenodd" clip-rule="evenodd" d="M15.5151 15.6373C14.9595 15.6373 14.5054 15.1882 14.5054 14.6326C14.5054 14.077 14.9504 13.6279 15.506 13.6279H15.5151C16.0707 13.6279 16.5197 14.077 16.5197 14.6326C16.5197 15.1882 16.0707 15.6373 15.5151 15.6373Z" fill="#1B1A1E" fill-opacity="0.4"/>
<path id="Fill 8" fill-rule="evenodd" clip-rule="evenodd" d="M10.4921 10.6139C9.93653 10.6139 9.48242 10.1648 9.48242 9.60917C9.48242 9.05358 9.92749 8.60449 10.4831 8.60449H10.4921C11.0477 8.60449 11.4968 9.05358 11.4968 9.60917C11.4968 10.1648 11.0477 10.6139 10.4921 10.6139Z" fill="#1B1A1E" fill-opacity="0.4"/>
</g>
</g>
</g>
</svg>
