<svg width="25" height="25" viewBox="0 0 25 25" fill="none" xmlns="http://www.w3.org/2000/svg">
<g id="Home 1">
<path id="Vector" d="M18.156 22.1633H16.1859C15.8576 22.1633 15.5427 22.0332 15.3114 21.8018C15.08 21.5704 14.9512 21.2569 14.9536 20.9309V17.8589C14.9536 17.4823 14.8029 17.1211 14.5346 16.8549L15.0655 16.3202C15.4757 16.7273 15.7071 17.2807 15.7071 17.8589V20.9309V20.9364H15.7071C15.7062 21.0599 15.7549 21.1797 15.8442 21.269C15.9336 21.3585 16.0566 21.4098 16.1859 21.4098H18.156H18.1579C18.8796 21.4116 19.5714 21.1282 20.0806 20.624C20.5897 20.1199 20.8748 19.4366 20.8748 18.7251V9.97345C20.8748 9.46338 20.6483 8.97787 20.2533 8.64704L13.5588 3.3393L13.5566 3.33748C12.6738 2.63199 11.4075 2.65492 10.5513 3.3915L10.5412 3.40021L10.5308 3.40855L3.98195 8.65062L3.97632 8.65514L3.97059 8.65954C3.55518 8.97919 3.30766 9.46524 3.29306 9.98311V18.7162C3.29306 20.1987 4.50512 21.4098 6.01187 21.4098H7.93694C8.21019 21.4098 8.42298 21.1923 8.42486 20.9343L8.42881 20.3944L8.45183 20.3867V17.8589C8.45183 16.6534 9.43472 15.6855 10.6356 15.6855H13.5232C14.1006 15.6855 14.6555 15.9131 15.0654 16.3201L18.156 22.1633ZM18.156 22.1633C19.0761 22.1656 19.9594 21.8044 20.6108 21.1594C21.2622 20.5144 21.6283 19.6385 21.6283 18.7251V9.97345C21.6283 9.23562 21.2989 8.53574 20.7288 8.06237L18.156 22.1633Z" stroke="#5A90E1" stroke-width="1.50701"/>
</g>
</svg>
