<svg width="25" height="25" viewBox="0 0 25 25" fill="none" xmlns="http://www.w3.org/2000/svg">
<g id="Setting ">
<g id="Iconly/Light-Outline/Setting">
<g id="Setting">
<g id="Group 3">
<g id="Mask group">
<mask id="mask0_84_759" style="mask-type:alpha" maskUnits="userSpaceOnUse" x="2" y="2" width="20" height="21">
<g id="Group">
<path id="Clip 2" fill-rule="evenodd" clip-rule="evenodd" d="M2.22852 2.07031H21.6035V22.8881H2.22852V2.07031Z" fill="white"/>
</g>
</mask>
<g mask="url(#mask0_84_759)">
<g id="Group_2">
<path id="Fill 1" fill-rule="evenodd" clip-rule="evenodd" d="M7.45514 17.5825C7.68521 17.5825 7.91529 17.6116 8.14033 17.6719C8.81949 17.8547 9.40923 18.3089 9.75886 18.9187C9.98592 19.3015 10.1115 19.7485 10.1155 20.2047C10.1155 20.8577 10.6399 21.3811 11.2849 21.3811H12.5438C13.1858 21.3811 13.7102 20.8607 13.7132 20.2187C13.7092 19.5094 13.9865 18.8353 14.4939 18.3279C14.9942 17.8276 15.6934 17.5272 16.3927 17.5473C16.8508 17.5584 17.2919 17.6819 17.6807 17.903C18.2403 18.2235 18.9546 18.0326 19.2781 17.48L19.9452 16.3678C20.0939 16.1116 20.1371 15.7901 20.0577 15.4938C19.9794 15.1974 19.7825 14.9402 19.5172 14.7885C18.8963 14.4308 18.4533 13.8541 18.2694 13.1629C18.0876 12.4848 18.187 11.7443 18.5417 11.1345C18.7728 10.7326 19.1113 10.394 19.5172 10.161C20.0618 9.84246 20.2526 9.13015 19.9362 8.57557C19.9231 8.55347 19.9111 8.53036 19.901 8.50625L19.3123 7.4855C18.9918 6.92791 18.2785 6.73601 17.7189 7.0545C17.1141 7.41216 16.3947 7.51463 15.7035 7.33279C15.0133 7.15396 14.4346 6.71692 14.0739 6.10006C13.8428 5.71426 13.7173 5.26517 13.7132 4.80805C13.7223 4.46445 13.6017 4.15601 13.3827 3.92996C13.1647 3.70492 12.8583 3.57732 12.5438 3.57732H11.2849C10.9735 3.57732 10.6821 3.69889 10.4621 3.91791C10.2431 4.13793 10.1236 4.43029 10.1256 4.74174C10.1045 6.21057 8.90388 7.39307 7.45012 7.39307C6.98395 7.38805 6.53486 7.26246 6.14505 7.02938C5.59751 6.71793 4.88218 6.90982 4.56169 7.46741L3.88152 8.58562C3.57008 9.12613 3.76096 9.84045 4.31554 10.163C5.13837 10.6392 5.65176 11.5273 5.65176 12.4797C5.65176 13.4322 5.13837 14.3193 4.31353 14.7965C3.76197 15.116 3.57108 15.8263 3.89057 16.3789L4.52451 17.472C4.68124 17.7543 4.93744 17.9582 5.23381 18.0416C5.52919 18.124 5.8547 18.0888 6.12596 17.9381C6.52482 17.704 6.98898 17.5825 7.45514 17.5825ZM12.5438 22.8881H11.2849C9.80909 22.8881 8.60851 21.6886 8.60851 20.2127C8.6065 20.0309 8.55426 19.842 8.4568 19.6782C8.29907 19.4029 8.04388 19.206 7.74951 19.1277C7.45715 19.0493 7.13666 19.0925 6.87344 19.2452C6.24251 19.5968 5.50005 19.6822 4.82089 19.4914C4.14274 19.2995 3.55701 18.8333 3.21342 18.2154L2.5855 17.1334C1.85108 15.8595 2.28811 14.2269 3.56003 13.4914C3.92071 13.2835 4.14475 12.8957 4.14475 12.4797C4.14475 12.0638 3.92071 11.675 3.56003 11.467C2.28711 10.7276 1.85108 9.09097 2.58449 7.81704L3.26566 6.69884C3.99003 5.43898 5.62764 4.99492 6.90458 5.72833C7.07839 5.83181 7.26727 5.88405 7.45916 5.88606C8.08507 5.88606 8.60851 5.36966 8.61856 4.73471C8.61454 4.03445 8.89082 3.36232 9.39416 2.85496C9.89951 2.34861 10.5706 2.07031 11.2849 2.07031H12.5438C13.2631 2.07031 13.9624 2.36569 14.4637 2.87907C14.9641 3.39548 15.2403 4.10377 15.2192 4.82211C15.2212 4.98386 15.2745 5.17073 15.3709 5.33449C15.5307 5.60576 15.7829 5.79664 16.0823 5.87501C16.3816 5.94935 16.6951 5.90917 16.9613 5.75143C18.2473 5.01702 19.8839 5.45706 20.6183 6.733L21.2443 7.81704C21.2603 7.84618 21.2744 7.87431 21.2865 7.90344C21.9515 9.16029 21.5075 10.7427 20.2717 11.465C20.0919 11.5685 19.9462 11.7132 19.8458 11.888C19.69 12.1582 19.6468 12.4797 19.7252 12.7751C19.8056 13.0765 19.9975 13.3267 20.2677 13.4814C20.8776 13.832 21.3327 14.4228 21.5145 15.1049C21.6964 15.7861 21.5969 16.5256 21.2423 17.1354L20.5751 18.2466C19.8407 19.5084 18.2041 19.9455 16.9312 19.21C16.7614 19.1126 16.5655 19.0593 16.3706 19.0543H16.3646C16.0742 19.0543 15.7758 19.1779 15.5588 19.3939C15.3388 19.6139 15.2182 19.9073 15.2202 20.2187C15.2132 21.6946 14.0126 22.8881 12.5438 22.8881Z" fill="#1B1A1E" fill-opacity="0.4"/>
</g>
</g>
</g>
</g>
<path id="Fill 4" fill-rule="evenodd" clip-rule="evenodd" d="M11.9184 10.5841C10.8735 10.5841 10.0236 11.4351 10.0236 12.48C10.0236 13.5248 10.8735 14.3738 11.9184 14.3738C12.9633 14.3738 13.8132 13.5248 13.8132 12.48C13.8132 11.4351 12.9633 10.5841 11.9184 10.5841ZM11.9184 15.8808C10.0427 15.8808 8.5166 14.3557 8.5166 12.48C8.5166 10.6042 10.0427 9.07715 11.9184 9.07715C13.7941 9.07715 15.3202 10.6042 15.3202 12.48C15.3202 14.3557 13.7941 15.8808 11.9184 15.8808Z" fill="#1B1A1E" fill-opacity="0.4"/>
</g>
</g>
</g>
</svg>
