<svg width="32" height="32" viewBox="0 0 32 32" fill="none" xmlns="http://www.w3.org/2000/svg">
<path d="M28.2178 16.5208L6.48033 16.5208L10.391 20.662C10.5913 20.886 10.7014 21.1843 10.6981 21.4934C10.6948 21.8026 10.5783 22.0981 10.3733 22.3172C10.1683 22.5363 9.89107 22.6616 9.60057 22.6665C9.31007 22.6714 9.02923 22.5556 8.81782 22.3435L2.99347 16.1747C2.88981 16.0645 2.80758 15.9336 2.75148 15.7896C2.69538 15.6456 2.6665 15.4912 2.6665 15.3352C2.6665 15.1793 2.69538 15.0249 2.75148 14.8809C2.80758 14.7368 2.88981 14.6059 2.99347 14.4957L8.819 8.32323C9.03041 8.11117 9.31124 7.99526 9.60174 8.00017C9.89224 8.00508 10.1695 8.13041 10.3745 8.3495C10.5794 8.56859 10.696 8.86415 10.6993 9.17328C10.7026 9.48241 10.5924 9.7807 10.3922 10.0047L6.48151 14.1459L28.2178 14.1459C28.5136 14.1459 28.7973 14.271 29.0065 14.4936C29.2157 14.7161 29.3332 15.018 29.3332 15.3327C29.3332 15.6475 29.2157 15.9493 29.0065 16.1719C28.7973 16.3945 28.5136 16.5208 28.2178 16.5208Z" fill="#1B1A1E"/>
</svg>
